<?xml version="1.0" encoding="UTF-8" standalone="no"?>
<svg
   version="1.1"
   width="725px"
   height="421px"
   viewBox="0 0 725 421"
   id="svg38"
   sodipodi:docname="arch.svg"
   inkscape:version="1.4 (e7c3feb1, 2024-10-09)"
   xmlns:inkscape="http://www.inkscape.org/namespaces/inkscape"
   xmlns:sodipodi="http://sodipodi.sourceforge.net/DTD/sodipodi-0.dtd"
   xmlns="http://www.w3.org/2000/svg"
   xmlns:svg="http://www.w3.org/2000/svg">
  <defs
     id="defs38" />
  <sodipodi:namedview
     id="namedview38"
     pagecolor="#ffffff"
     bordercolor="#000000"
     borderopacity="0.25"
     inkscape:showpageshadow="2"
     inkscape:pageopacity="0.0"
     inkscape:pagecheckerboard="0"
     inkscape:deskcolor="#d1d1d1"
     inkscape:zoom="1.4482759"
     inkscape:cx="362.15476"
     inkscape:cy="210.25"
     inkscape:window-width="2272"
     inkscape:window-height="1186"
     inkscape:window-x="27"
     inkscape:window-y="153"
     inkscape:window-maximized="0"
     inkscape:current-layer="svg38" />
  <g
     id="g2">
    <path
       d="M 394.31 35 L 40 35 L 40 98.63"
       fill="none"
       stroke="#000000"
       stroke-miterlimit="10"
       id="path1" />
    <path
       d="M 40 103.88 L 36.5 96.88 L 40 98.63 L 43.5 96.88 Z"
       fill="#000000"
       stroke="#000000"
       stroke-miterlimit="10"
       id="path2" />
  </g>
  <g
     id="linux">
    <ellipse
       cx="244"
       cy="120"
       rx="65"
       ry="65"
       fill="#ffffff"
       stroke="#000000"
       id="ellipse2" />
    <text
       x="244"
       y="124"
       fill="#000000"
       font-family="Helvetica"
       font-size="12px"
       text-anchor="middle"
       id="text3"><tspan
         x="244"
         dy="-0.6em"
         id="tspan2">Linux</tspan><tspan
         x="244"
         dy="1.2em"
         id="tspan3">Kernel</tspan></text>
  </g>
  <g
     id="g4">
    <path
       d="M 474 40 L 494 40 L 477.5 40 L 491.13 40"
       fill="none"
       stroke="#000000"
       stroke-miterlimit="10"
       id="path3" />
    <path
       d="M 496.38 40 L 489.38 43.5 L 491.13 40 L 489.38 36.5 Z"
       fill="#000000"
       stroke="#000000"
       stroke-miterlimit="10"
       id="path4" />
  </g>
  <g
     id="g6">
    <path
       d="M 434 80 L 434 242.5 L 376.37 242.5"
       fill="none"
       stroke="#000000"
       stroke-miterlimit="10"
       id="path5" />
    <path
       d="M 371.12 242.5 L 378.12 239 L 376.37 242.5 L 378.12 246 Z"
       fill="#000000"
       stroke="#000000"
       stroke-miterlimit="10"
       id="path6" />
  </g>
  <g
     id="init">
    <ellipse
       cx="434"
       cy="40"
       rx="40"
       ry="40"
       fill="#ffffff"
       stroke="#000000"
       id="ellipse6" />
    <text
       x="434"
       y="44"
       fill="#000000"
       font-family="Helvetica"
       font-size="12px"
       text-anchor="middle"
       id="text6"><tspan
         x="434"
         dy="0"
         id="tspan6">init</tspan></text>
  </g>
  <g
     id="core">
    <path
       d="M 174 330 C 174 321.72 205.34 315 244 315 C 262.57 315 280.37 316.58 293.5 319.39 C 306.63 322.21 314 326.02 314 330 L 314 380 C 314 388.28 282.66 395 244 395 C 205.34 395 174 388.28 174 380 Z"
       fill="#ffffff"
       stroke="#000000"
       stroke-miterlimit="10"
       id="path7" />
    <path
       d="M 314 330 C 314 338.28 282.66 345 244 345 C 205.34 345 174 338.28 174 330"
       fill="none"
       stroke="#000000"
       stroke-miterlimit="10"
       id="path8" />
    <text
       x="244"
       y="371"
       fill="#000000"
       font-family="Helvetica"
       font-size="12px"
       text-anchor="middle"
       id="text8"><tspan
         x="244"
         dy="0"
         id="tspan8">core.db</tspan></text>
  </g>
  <g
     id="zish">
    <ellipse
       cx="537.5"
       cy="40"
       rx="40"
       ry="40"
       fill="#ffffff"
       stroke="#000000"
       id="ellipse8" />
    <text
       x="538"
       y="44"
       fill="#000000"
       font-family="Helvetica"
       font-size="12px"
       text-anchor="middle"
       id="text10"><tspan
         x="538"
         dy="-0.6em"
         id="tspan9">Zish</tspan><tspan
         x="538"
         dy="1.2em"
         id="tspan10">Shell</tspan></text>
  </g>
  <g
     id="ronin">
    <ellipse
       cx="684"
       cy="40"
       rx="40"
       ry="40"
       fill="#ffffff"
       stroke="#000000"
       id="ellipse10" />
    <text
       x="684"
       y="44"
       fill="#000000"
       font-family="Helvetica"
       font-size="12px"
       text-anchor="middle"
       id="text11"><tspan
         x="684"
         dy="0"
         id="tspan11">Ronin Runtime</tspan></text>
  </g>
  <g
     id="charon">
    <ellipse
       cx="40"
       cy="145"
       rx="40"
       ry="40"
       fill="#ffffff"
       stroke="#000000"
       id="ellipse11" />
    <text
       x="40"
       y="149"
       fill="#000000"
       font-family="Helvetica"
       font-size="12px"
       text-anchor="middle"
       id="text13"><tspan
         x="40"
         dy="-0.6em"
         id="tspan12">Charon</tspan><tspan
         x="40"
         dy="1.2em"
         id="tspan13">DNS</tspan></text>
  </g>
  <g
     id="ns">
    <path
       d="M 0 340 C 0 331.72 17.91 325 40 325 C 50.61 325 60.78 326.58 68.28 329.39 C 75.79 332.21 80 336.02 80 340 L 80 370 C 80 378.28 62.09 385 40 385 C 17.91 385 0 378.28 0 370 Z"
       fill="#ffffff"
       stroke="#000000"
       stroke-miterlimit="10"
       id="path13" />
    <path
       d="M 80 340 C 80 348.28 62.09 355 40 355 C 17.91 355 0 348.28 0 340"
       fill="none"
       stroke="#000000"
       stroke-miterlimit="10"
       id="path14" />
    <text
       x="40"
       y="371"
       fill="#000000"
       font-family="Helvetica"
       font-size="12px"
       text-anchor="middle"
       id="text14"><tspan
         x="40"
         dy="0"
         id="tspan14">ns.db</tspan></text>
  </g>
  <g
     id="g16">
    <path
       d="M 174 355 L 86.37 355"
       fill="none"
       stroke="#000000"
       stroke-miterlimit="10"
       id="path15" />
    <path
       d="M 81.12 355 L 88.12 351.5 L 86.37 355 L 88.12 358.5 Z"
       fill="#000000"
       stroke="#000000"
       stroke-miterlimit="10"
       id="path16" />
  </g>
  <g
     id="g17">
    <text
       x="129"
       y="359"
       fill="#000000"
       font-family="Helvetica"
       font-size="11px"
       text-anchor="middle"
       id="text16"><tspan
         x="129"
         dy="0"
         id="tspan16">ATTACH</tspan></text>
  </g>
  <g
     id="g18">
    <path
       d="M 40 185 L 40 318.63"
       fill="none"
       stroke="#000000"
       stroke-miterlimit="10"
       id="path17" />
    <path
       d="M 40 323.88 L 36.5 316.88 L 40 318.63 L 43.5 316.88 Z"
       fill="#000000"
       stroke="#000000"
       stroke-miterlimit="10"
       id="path18" />
  </g>
  <g
     id="g20">
    <path
       d="M 244 185 L 244 308.63"
       fill="none"
       stroke="#000000"
       stroke-miterlimit="10"
       id="path19" />
    <path
       d="M 244 313.88 L 240.5 306.88 L 244 308.63 L 247.5 306.88 Z"
       fill="#000000"
       stroke="#000000"
       stroke-miterlimit="10"
       id="path20" />
  </g>
  <g
     id="g22">
    <path
       d="M 644 175 L 684 175 L 684 86.37"
       fill="none"
       stroke="#000000"
       stroke-miterlimit="10"
       id="path21" />
    <path
       d="M 684 81.12 L 687.5 88.12 L 684 86.37 L 680.5 88.12 Z"
       fill="#000000"
       stroke="#000000"
       stroke-miterlimit="10"
       id="path22" />
  </g>
  <g
     id="ipc">
    <path
       d="M 564 160 C 564 151.72 581.91 145 604 145 C 614.61 145 624.78 146.58 632.28 149.39 C 639.79 152.21 644 156.02 644 160 L 644 190 C 644 198.28 626.09 205 604 205 C 581.91 205 564 198.28 564 190 Z"
       fill="#ffffff"
       stroke="#000000"
       stroke-miterlimit="10"
       id="path23" />
    <path
       d="M 644 160 C 644 168.28 626.09 175 604 175 C 581.91 175 564 168.28 564 160"
       fill="none"
       stroke="#000000"
       stroke-miterlimit="10"
       id="path24" />
    <text
       x="604"
       y="191"
       fill="#000000"
       font-family="Helvetica"
       font-size="12px"
       text-anchor="middle"
       id="text24"><tspan
         x="604"
         dy="0"
         id="tspan24">ipc.db</tspan></text>
  </g>
  <g
     id="log">
    <path
       d="M 364 375 C 364 366.72 381.91 360 404 360 C 414.61 360 424.78 361.58 432.28 364.39 C 439.79 367.21 444 371.02 444 375 L 444 405 C 444 413.28 426.09 420 404 420 C 381.91 420 364 413.28 364 405 Z"
       fill="#ffffff"
       stroke="#000000"
       stroke-miterlimit="10"
       id="path25" />
    <path
       d="M 444 375 C 444 383.28 426.09 390 404 390 C 381.91 390 364 383.28 364 375"
       fill="none"
       stroke="#000000"
       stroke-miterlimit="10"
       id="path26" />
    <text
       x="404"
       y="406"
       fill="#000000"
       font-family="Helvetica"
       font-size="12px"
       text-anchor="middle"
       id="text26"><tspan
         x="404"
         dy="0"
         id="tspan26">log.db</tspan></text>
  </g>
  <g
     id="metrics">
    <path
       d="M 364 305 C 364 296.72 381.91 290 404 290 C 414.61 290 424.78 291.58 432.28 294.39 C 439.79 297.21 444 301.02 444 305 L 444 335 C 444 343.28 426.09 350 404 350 C 381.91 350 364 343.28 364 335 Z"
       fill="#ffffff"
       stroke="#000000"
       stroke-miterlimit="10"
       id="path27" />
    <path
       d="M 444 305 C 444 313.28 426.09 320 404 320 C 381.91 320 364 313.28 364 305"
       fill="none"
       stroke="#000000"
       stroke-miterlimit="10"
       id="path28" />
    <text
       x="404"
       y="336"
       fill="#000000"
       font-family="Helvetica"
       font-size="12px"
       text-anchor="middle"
       id="text28"><tspan
         x="404"
         dy="0"
         id="tspan28">metrics.db</tspan></text>
  </g>
  <g
     id="g30">
    <path
       d="M 309 120 L 336.5 120 L 336.5 320 L 357.63 320"
       fill="none"
       stroke="#000000"
       stroke-miterlimit="10"
       id="path29" />
    <path
       d="M 362.88 320 L 355.88 323.5 L 357.63 320 L 355.88 316.5 Z"
       fill="#000000"
       stroke="#000000"
       stroke-miterlimit="10"
       id="path30" />
  </g>
  <g
     id="g32">
    <path
       d="M 309 120 L 336.5 120 L 336.5 390 L 357.63 390"
       fill="none"
       stroke="#000000"
       stroke-miterlimit="10"
       id="path31" />
    <path
       d="M 362.88 390 L 355.88 393.5 L 357.63 390 L 355.88 386.5 Z"
       fill="#000000"
       stroke="#000000"
       stroke-miterlimit="10"
       id="path32" />
  </g>
  <g
     id="pluto">
    <ellipse
       cx="337.5"
       cy="242.5"
       rx="32.5"
       ry="32.5"
       fill="#ffffff"
       stroke="#000000"
       id="ellipse32" />
    <text
       x="338"
       y="246"
       fill="#000000"
       font-family="Helvetica"
       font-size="12px"
       text-anchor="middle"
       id="text33"><tspan
         x="338"
         dy="-0.6em"
         id="tspan32">Pluto</tspan><tspan
         x="338"
         dy="1.2em"
         id="tspan33">Collector</tspan></text>
  </g>
  <g
     id="g34">
    <path
       d="M 537.5 80 L 537.5 175 L 557.63 175"
       fill="none"
       stroke="#000000"
       stroke-miterlimit="10"
       id="path33" />
    <path
       d="M 562.88 175 L 555.88 178.5 L 557.63 175 L 555.88 171.5 Z"
       fill="#000000"
       stroke="#000000"
       stroke-miterlimit="10"
       id="path34" />
  </g>
  <g
     id="history">
    <path
       d="M 564 230 C 564 221.72 581.91 215 604 215 C 614.61 215 624.78 216.58 632.28 219.39 C 639.79 222.21 644 226.02 644 230 L 644 260 C 644 268.28 626.09 275 604 275 C 581.91 275 564 268.28 564 260 Z"
       fill="#ffffff"
       stroke="#000000"
       stroke-miterlimit="10"
       id="path35" />
    <path
       d="M 644 230 C 644 238.28 626.09 245 604 245 C 581.91 245 564 238.28 564 230"
       fill="none"
       stroke="#000000"
       stroke-miterlimit="10"
       id="path36" />
    <text
       x="604"
       y="261"
       fill="#000000"
       font-family="Helvetica"
       font-size="12px"
       text-anchor="middle"
       id="text36"><tspan
         x="604"
         dy="0"
         id="tspan36">history.db</tspan></text>
  </g>
  <g
     id="g38">
    <path
       d="M 537.5 80 L 537.5 245 L 557.63 245"
       fill="none"
       stroke="#000000"
       stroke-miterlimit="10"
       id="path37" />
    <path
       d="M 562.88 245 L 555.88 248.5 L 557.63 245 L 555.88 241.5 Z"
       fill="#000000"
       stroke="#000000"
       stroke-miterlimit="10"
       id="path38" />
  </g>
</svg>
